<svg data-v-423bf9ae="" xmlns="http://www.w3.org/2000/svg" viewBox="0 0 383.2057245080501 163" class="iconAbove"><!----><!----><defs data-v-423bf9ae=""><linearGradient data-v-423bf9ae="" gradientTransform="rotate(25)" id="f809320a-9504-487a-8869-067f4470fc6f" x1="0%" y1="0%" x2="100%" y2="0%"><stop data-v-423bf9ae="" offset="0%" style="stop-color: rgb(0, 237, 174); stop-opacity: 1;"></stop><stop data-v-423bf9ae="" offset="100%" style="stop-color: rgb(0, 61, 82); stop-opacity: 1;"></stop></linearGradient></defs><g data-v-423bf9ae="" id="964783f2-3ec4-4e12-9d7e-a43b81cc517d" fill="url(#f809320a-9504-487a-8869-067f4470fc6f)" transform="matrix(5.495527744293213,0,0,5.495527744293213,-3.02683687210083,87.60823059082031)"><path d="M7.03 11.89L7.39 12.42L7.39 12.42Q6.86 13.01 6.07 13.33L6.07 13.33L6.07 13.33Q5.28 13.65 4.35 13.65L4.35 13.65L4.35 13.65Q3.50 13.65 2.80 13.38L2.80 13.38L2.80 13.38Q2.10 13.10 1.60 12.61L1.60 12.61L1.60 12.61Q1.09 12.12 0.82 11.43L0.82 11.43L0.82 11.43Q0.55 10.74 0.55 9.90L0.55 9.90L0.55 9.90Q0.55 9.03 0.84 8.32L0.84 8.32L0.84 8.32Q1.13 7.60 1.67 7.09L1.67 7.09L1.67 7.09Q2.20 6.58 2.94 6.30L2.94 6.30L2.94 6.30Q3.68 6.02 4.58 6.02L4.58 6.02L4.58 6.02Q5.21 6.02 5.75 6.15L5.75 6.15L5.75 6.15Q6.29 6.27 6.67 6.50L6.67 6.50L6.67 6.50Q7.06 6.72 7.28 7.02L7.28 7.02L7.28 7.02Q7.50 7.32 7.50 7.67L7.50 7.67L7.50 7.67Q7.50 8.08 7.27 8.32L7.27 8.32L7.27 8.32Q7.04 8.55 6.65 8.55L6.65 8.55L6.65 8.55Q6.33 8.55 6.08 8.39L6.08 8.39L6.08 8.39Q5.84 8.22 5.60 7.84L5.60 7.84L5.60 7.84Q5.39 7.50 5.24 7.31L5.24 7.31L5.24 7.31Q5.10 7.11 4.97 7.01L4.97 7.01L4.97 7.01Q4.84 6.90 4.72 6.87L4.72 6.87L4.72 6.87Q4.59 6.83 4.41 6.83L4.41 6.83L4.41 6.83Q3.60 6.83 3.15 7.59L3.15 7.59L3.15 7.59Q2.70 8.34 2.70 9.70L2.70 9.70L2.70 9.70Q2.70 11.16 3.24 11.94L3.24 11.94L3.24 11.94Q3.78 12.73 4.79 12.73L4.79 12.73L4.79 12.73Q5.36 12.73 5.94 12.51L5.94 12.51L5.94 12.51Q6.51 12.29 7.03 11.89L7.03 11.89ZM12.49 6.02L12.49 6.02L12.49 6.02Q13.33 6.02 14.08 6.31L14.08 6.31L14.08 6.31Q14.83 6.59 15.39 7.10L15.39 7.10L15.39 7.10Q15.96 7.60 16.29 8.29L16.29 8.29L16.29 8.29Q16.62 8.99 16.62 9.81L16.62 9.81L16.62 9.81Q16.62 10.67 16.29 11.38L16.29 11.38L16.29 11.38Q15.96 12.10 15.39 12.61L15.39 12.61L15.39 12.61Q14.83 13.13 14.08 13.43L14.08 13.43L14.08 13.43Q13.33 13.72 12.49 13.72L12.49 13.72L12.49 13.72Q11.66 13.72 10.92 13.43L10.92 13.43L10.92 13.43Q10.18 13.15 9.62 12.63L9.62 12.63L9.62 12.63Q9.06 12.11 8.74 11.39L8.74 11.39L8.74 11.39Q8.41 10.67 8.41 9.81L8.41 9.81L8.41 9.81Q8.41 8.99 8.74 8.29L8.74 8.29L8.74 8.29Q9.06 7.59 9.62 7.08L9.62 7.08L9.62 7.08Q10.18 6.58 10.92 6.30L10.92 6.30L10.92 6.30Q11.66 6.02 12.49 6.02ZM12.49 6.83L12.49 6.83L12.49 6.83Q12.07 6.83 11.72 7.05L11.72 7.05L11.72 7.05Q11.37 7.27 11.12 7.66L11.12 7.66L11.12 7.66Q10.88 8.05 10.75 8.60L10.75 8.60L10.75 8.60Q10.61 9.16 10.61 9.83L10.61 9.83L10.61 9.83Q10.61 10.53 10.75 11.09L10.75 11.09L10.75 11.09Q10.88 11.65 11.12 12.04L11.12 12.04L11.12 12.04Q11.37 12.43 11.71 12.65L11.71 12.65L11.71 12.65Q12.05 12.87 12.49 12.87L12.49 12.87L12.49 12.87Q12.92 12.87 13.28 12.65L13.28 12.65L13.28 12.65Q13.64 12.43 13.89 12.03L13.89 12.03L13.89 12.03Q14.14 11.63 14.28 11.07L14.28 11.07L14.28 11.07Q14.42 10.51 14.42 9.83L14.42 9.83L14.42 9.83Q14.42 9.16 14.28 8.61L14.28 8.61L14.28 8.61Q14.14 8.06 13.89 7.67L13.89 7.67L13.89 7.67Q13.64 7.27 13.28 7.05L13.28 7.05L13.28 7.05Q12.92 6.83 12.49 6.83ZM22.65 13.58L17.26 13.58L17.26 13.02L17.26 13.02Q17.74 13.01 18.03 12.94L18.03 12.94L18.03 12.94Q18.31 12.87 18.47 12.70L18.47 12.70L18.47 12.70Q18.63 12.53 18.69 12.22L18.69 12.22L18.69 12.22Q18.75 11.91 18.75 11.42L18.75 11.42L18.75 4.96L18.75 4.96Q18.75 4.47 18.70 4.16L18.70 4.16L18.70 4.16Q18.66 3.86 18.53 3.69L18.53 3.69L18.53 3.69Q18.40 3.51 18.16 3.45L18.16 3.45L18.16 3.45Q17.93 3.39 17.56 3.36L17.56 3.36L17.56 2.80L22.05 2.80L22.05 2.80Q24.16 2.80 25.30 3.48L25.30 3.48L25.30 3.48Q26.45 4.16 26.45 5.42L26.45 5.42L26.45 5.42Q26.45 7.08 24.05 7.77L24.05 7.77L24.05 7.83L24.05 7.83Q24.82 7.83 25.45 8.04L25.45 8.04L25.45 8.04Q26.07 8.26 26.50 8.65L26.50 8.65L26.50 8.65Q26.94 9.04 27.17 9.58L27.17 9.58L27.17 9.58Q27.41 10.11 27.41 10.74L27.41 10.74L27.41 10.74Q27.41 11.45 27.07 11.98L27.07 11.98L27.07 11.98Q26.73 12.52 26.08 12.88L26.08 12.88L26.08 12.88Q24.84 13.58 22.65 13.58L22.65 13.58ZM22.75 12.73L22.75 12.73L22.75 12.73Q25.00 12.73 25.00 10.70L25.00 10.70L25.00 10.70Q25.00 9.45 24.19 8.88L24.19 8.88L24.19 8.88Q23.77 8.58 23.11 8.46L23.11 8.46L23.11 8.46Q22.44 8.33 21.48 8.33L21.48 8.33L20.80 8.33L20.80 11.13L20.80 11.13Q20.80 12.00 21.25 12.36L21.25 12.36L21.25 12.36Q21.70 12.73 22.75 12.73ZM20.80 7.49L21.63 7.49L21.63 7.49Q22.26 7.49 22.72 7.37L22.72 7.37L22.72 7.37Q23.18 7.25 23.51 7.03L23.51 7.03L23.51 7.03Q24.18 6.57 24.18 5.59L24.18 5.59L24.18 5.59Q24.18 4.56 23.67 4.11L23.67 4.11L23.67 4.11Q23.17 3.65 22.05 3.65L22.05 3.65L21.06 3.65L21.06 3.65Q20.80 3.65 20.80 3.89L20.80 3.89L20.80 7.49ZM31.57 10.74L31.57 11.41L31.57 11.41Q31.57 11.96 31.62 12.27L31.62 12.27L31.62 12.27Q31.67 12.59 31.82 12.75L31.82 12.75L31.82 12.75Q31.98 12.92 32.27 12.97L32.27 12.97L32.27 12.97Q32.56 13.02 33.05 13.02L33.05 13.02L33.05 13.58L28.38 13.58L28.38 13.02L28.38 13.02Q28.80 12.99 29.05 12.94L29.05 12.94L29.05 12.94Q29.30 12.88 29.43 12.71L29.43 12.71L29.43 12.71Q29.55 12.54 29.59 12.23L29.59 12.23L29.59 12.23Q29.62 11.91 29.62 11.38L29.62 11.38L29.62 9.67L29.62 9.67Q29.62 8.81 29.58 8.29L29.58 8.29L29.58 8.29Q29.54 7.77 29.40 7.49L29.40 7.49L29.40 7.49Q29.26 7.21 29.00 7.12L29.00 7.12L29.00 7.12Q28.74 7.03 28.32 7.03L28.32 7.03L28.32 6.54L31.12 6.02L31.35 7.63L31.40 7.63L31.40 7.63Q31.78 6.89 32.40 6.45L32.40 6.45L32.40 6.45Q33.01 6.02 33.70 6.02L33.70 6.02L33.70 6.02Q34.23 6.02 34.57 6.29L34.57 6.29L34.57 6.29Q34.90 6.55 34.90 6.96L34.90 6.96L34.90 6.96Q34.90 7.41 34.64 7.71L34.64 7.71L34.64 7.71Q34.38 8.02 33.94 8.02L33.94 8.02L33.94 8.02Q33.73 8.02 33.56 7.94L33.56 7.94L33.56 7.94Q33.39 7.85 33.26 7.75L33.26 7.75L33.26 7.75Q33.12 7.64 32.99 7.55L32.99 7.55L32.99 7.55Q32.86 7.46 32.72 7.46L32.72 7.46L32.72 7.46Q32.45 7.46 32.21 7.81L32.21 7.81L32.21 7.81Q31.98 8.16 31.82 8.75L31.82 8.75L31.82 8.75Q31.71 9.17 31.64 9.70L31.64 9.70L31.64 9.70Q31.57 10.22 31.57 10.74L31.57 10.74ZM39.45 6.02L39.45 6.02L39.45 6.02Q40.29 6.02 41.04 6.31L41.04 6.31L41.04 6.31Q41.79 6.59 42.36 7.10L42.36 7.10L42.36 7.10Q42.92 7.60 43.25 8.29L43.25 8.29L43.25 8.29Q43.58 8.99 43.58 9.81L43.58 9.81L43.58 9.81Q43.58 10.67 43.25 11.38L43.25 11.38L43.25 11.38Q42.92 12.10 42.36 12.61L42.36 12.61L42.36 12.61Q41.79 13.13 41.04 13.43L41.04 13.43L41.04 13.43Q40.29 13.72 39.45 13.72L39.45 13.72L39.45 13.72Q38.63 13.72 37.88 13.43L37.88 13.43L37.88 13.43Q37.14 13.15 36.58 12.63L36.58 12.63L36.58 12.63Q36.02 12.11 35.70 11.39L35.70 11.39L35.70 11.39Q35.38 10.67 35.38 9.81L35.38 9.81L35.38 9.81Q35.38 8.99 35.70 8.29L35.70 8.29L35.70 8.29Q36.02 7.59 36.58 7.08L36.58 7.08L36.58 7.08Q37.14 6.58 37.88 6.30L37.88 6.30L37.88 6.30Q38.63 6.02 39.45 6.02ZM39.45 6.83L39.45 6.83L39.45 6.83Q39.03 6.83 38.68 7.05L38.68 7.05L38.68 7.05Q38.33 7.27 38.09 7.66L38.09 7.66L38.09 7.66Q37.84 8.05 37.71 8.60L37.71 8.60L37.71 8.60Q37.58 9.16 37.58 9.83L37.58 9.83L37.58 9.83Q37.58 10.53 37.71 11.09L37.71 11.09L37.71 11.09Q37.84 11.65 38.09 12.04L38.09 12.04L38.09 12.04Q38.33 12.43 38.67 12.65L38.67 12.65L38.67 12.65Q39.02 12.87 39.45 12.87L39.45 12.87L39.45 12.87Q39.89 12.87 40.24 12.65L40.24 12.65L40.24 12.65Q40.60 12.43 40.85 12.03L40.85 12.03L40.85 12.03Q41.10 11.63 41.24 11.07L41.24 11.07L41.24 11.07Q41.38 10.51 41.38 9.83L41.38 9.83L41.38 9.83Q41.38 9.16 41.24 8.61L41.24 8.61L41.24 8.61Q41.10 8.06 40.85 7.67L40.85 7.67L40.85 7.67Q40.60 7.27 40.24 7.05L40.24 7.05L40.24 7.05Q39.89 6.83 39.45 6.83ZM50.06 8.75L48.17 13.72L47.12 13.72L45.21 7.97L45.21 7.97Q44.98 7.29 44.69 7.02L44.69 7.02L44.69 7.02Q44.39 6.75 43.90 6.72L43.90 6.72L43.90 6.16L47.91 6.16L47.91 6.72L47.91 6.72Q47.40 6.73 47.21 6.87L47.21 6.87L47.21 6.87Q47.01 7 47.01 7.32L47.01 7.32L47.01 7.32Q47.01 7.48 47.05 7.66L47.05 7.66L47.05 7.66Q47.10 7.84 47.17 8.08L47.17 8.08L48.05 11.35L48.10 11.35L50.06 6.16L51.21 6.16L52.68 11.35L52.75 11.35L53.87 8.46L53.87 8.46Q54.01 8.11 54.07 7.85L54.07 7.85L54.07 7.85Q54.12 7.59 54.12 7.39L54.12 7.39L54.12 7.39Q54.12 7.03 53.89 6.87L53.89 6.87L53.89 6.87Q53.65 6.72 53.24 6.72L53.24 6.72L53.24 6.16L56.25 6.16L56.25 6.72L56.25 6.72Q56 6.72 55.83 6.78L55.83 6.78L55.83 6.78Q55.66 6.83 55.50 7.04L55.50 7.04L55.50 7.04Q55.33 7.25 55.13 7.69L55.13 7.69L55.13 7.69Q54.94 8.12 54.64 8.88L54.64 8.88L52.71 13.72L51.60 13.72L50.12 8.75L50.06 8.75ZM57.57 13.09L57.26 13.58L56.83 13.58L56.83 11.03L57.41 11.03L57.41 11.03Q57.65 12.04 58.10 12.50L58.10 12.50L58.10 12.50Q58.55 12.96 59.26 12.96L59.26 12.96L59.26 12.96Q59.78 12.96 60.07 12.75L60.07 12.75L60.07 12.75Q60.35 12.53 60.35 12.15L60.35 12.15L60.35 12.15Q60.35 11.76 60.00 11.39L60.00 11.39L60.00 11.39Q59.65 11.02 58.87 10.60L58.87 10.60L58.87 10.60Q57.81 10.02 57.34 9.46L57.34 9.46L57.34 9.46Q56.88 8.89 56.88 8.18L56.88 8.18L56.88 8.18Q56.88 7.71 57.06 7.31L57.06 7.31L57.06 7.31Q57.23 6.92 57.53 6.62L57.53 6.62L57.53 6.62Q57.83 6.33 58.25 6.17L58.25 6.17L58.25 6.17Q58.67 6.01 59.16 6.01L59.16 6.01L59.16 6.01Q59.60 6.01 60.03 6.13L60.03 6.13L60.03 6.13Q60.45 6.26 60.77 6.48L60.77 6.48L61.03 6.15L61.39 6.15L61.39 8.26L60.84 8.26L60.84 8.26Q60.52 7.46 60.18 7.11L60.18 7.11L60.18 7.11Q59.84 6.76 59.35 6.76L59.35 6.76L59.35 6.76Q58.95 6.76 58.72 6.97L58.72 6.97L58.72 6.97Q58.49 7.18 58.49 7.53L58.49 7.53L58.49 7.53Q58.49 7.92 58.84 8.27L58.84 8.27L58.84 8.27Q59.18 8.62 59.98 9.04L59.98 9.04L59.98 9.04Q60.54 9.35 60.94 9.65L60.94 9.65L60.94 9.65Q61.35 9.94 61.60 10.24L61.60 10.24L61.60 10.24Q61.85 10.54 61.97 10.87L61.97 10.87L61.97 10.87Q62.09 11.20 62.09 11.58L62.09 11.58L62.09 11.58Q62.09 12.07 61.91 12.46L61.91 12.46L61.91 12.46Q61.73 12.85 61.39 13.13L61.39 13.13L61.39 13.13Q61.05 13.41 60.59 13.57L60.59 13.57L60.59 13.57Q60.12 13.72 59.54 13.72L59.54 13.72L59.54 13.72Q58.94 13.72 58.42 13.56L58.42 13.56L58.42 13.56Q57.90 13.40 57.57 13.09L57.57 13.09ZM69.76 11.79L70.15 12.28L70.15 12.28Q68.88 13.72 66.98 13.72L66.98 13.72L66.98 13.72Q66.11 13.72 65.40 13.45L65.40 13.45L65.40 13.45Q64.69 13.17 64.19 12.68L64.19 12.68L64.19 12.68Q63.69 12.18 63.41 11.49L63.41 11.49L63.41 11.49Q63.13 10.81 63.13 9.97L63.13 9.97L63.13 9.97Q63.13 9.10 63.42 8.38L63.42 8.38L63.42 8.38Q63.71 7.66 64.25 7.13L64.25 7.13L64.25 7.13Q64.79 6.61 65.53 6.31L65.53 6.31L65.53 6.31Q66.26 6.02 67.14 6.02L67.14 6.02L67.14 6.02Q68.63 6.02 69.45 6.82L69.45 6.82L69.45 6.82Q70.28 7.62 70.28 9.06L70.28 9.06L70.28 9.06Q70.28 9.28 70.21 9.33L70.21 9.33L70.21 9.33Q70.14 9.38 69.82 9.38L69.82 9.38L65.31 9.38L65.31 9.38Q65.25 9.51 65.25 9.84L65.25 9.84L65.25 9.84Q65.25 11.21 65.85 12.01L65.85 12.01L65.85 12.01Q66.44 12.81 67.47 12.81L67.47 12.81L67.47 12.81Q68.05 12.81 68.64 12.54L68.64 12.54L68.64 12.54Q69.22 12.28 69.76 11.79L69.76 11.79ZM65.41 8.60L67.44 8.60L67.44 8.60Q68.00 8.60 68.16 8.53L68.16 8.53L68.16 8.53Q68.32 8.47 68.32 8.23L68.32 8.23L68.32 8.23Q68.32 7.62 67.97 7.22L67.97 7.22L67.97 7.22Q67.62 6.83 67.09 6.83L67.09 6.83L67.09 6.83Q66.49 6.83 66.02 7.33L66.02 7.33L66.02 7.33Q65.55 7.83 65.41 8.60L65.41 8.60Z"></path></g><defs data-v-423bf9ae=""><linearGradient data-v-423bf9ae="" gradientTransform="rotate(25)" id="bde56012-bab6-411b-b230-4ac299217619" x1="0%" y1="0%" x2="100%" y2="0%"><stop data-v-423bf9ae="" offset="0%" style="stop-color: rgb(0, 237, 174); stop-opacity: 1;"></stop><stop data-v-423bf9ae="" offset="100%" style="stop-color: rgb(0, 61, 82); stop-opacity: 1;"></stop></linearGradient></defs><g data-v-423bf9ae="" id="f905fe93-bfc3-43ce-973e-c0a14ecb46f7" transform="matrix(1.293074369430542,0,0,1.293074369430542,127.34628295898438,-19.454500198364258)" stroke="none" fill="url(#bde56012-bab6-411b-b230-4ac299217619)"><path d="M23.951 42.275h20.05V23.201L0 15.201v69.598l44.001-7.998V57.727h-20.05z"></path><path d="M56.002 23.201v19.074H44.001v15.452h12.001v19.074L100 84.799V15.201l-43.998 8zM94.4 78.09l-32.799-5.963v-14.4h9.62v6.535l8.414-7.133L88.053 50l-8.417-7.129-8.414-7.132v6.535h-9.62v-14.4L94.4 21.911V78.09z"></path></g><!----></svg>